<svg width="1024" height="1024" viewBox="0 0 1024 1024" fill="none" xmlns="http://www.w3.org/2000/svg">
<circle cx="512" cy="512" r="512" fill="url(#paint0_linear_29_2)"/>
<ellipse cx="512" cy="512" rx="452.852" ry="445.458" fill="black"/>
<circle cx="612.101" cy="640.101" r="84.1011" fill="url(#paint1_linear_29_2)"/>
<circle cx="365.715" cy="682.066" r="210.715" fill="url(#paint2_linear_29_2)"/>
<circle cx="370.466" cy="444.466" r="67.4657" fill="url(#paint3_linear_29_2)"/>
<circle cx="576.372" cy="488.372" r="117.372" fill="url(#paint4_linear_29_2)"/>
<circle cx="615.518" cy="263.518" r="41.3785" transform="rotate(45 615.518 263.518)" fill="url(#paint5_linear_29_2)"/>
<circle cx="839.964" cy="354.964" r="48.0578" transform="rotate(45 839.964 354.964)" fill="url(#paint6_linear_29_2)"/>
<circle cx="747.177" cy="405.177" r="83.1769" fill="url(#paint7_linear_29_2)"/>
<circle cx="557.075" cy="328.075" r="54.5" transform="rotate(45 557.075 328.075)" fill="url(#paint8_linear_29_2)"/>
<circle cx="800.885" cy="206.885" r="50.8303" transform="rotate(45 800.885 206.885)" fill="url(#paint9_linear_29_2)"/>
<ellipse cx="206.892" cy="687.999" rx="37.8917" ry="81.3285" fill="white"/>
<path d="M461.955 678.834C466.557 690.847 468.747 703.65 468.401 716.51C468.055 729.37 465.18 742.036 459.939 753.785C454.698 765.534 447.194 776.135 437.856 784.984C428.518 793.833 417.529 800.756 405.515 805.358C393.502 809.96 380.699 812.15 367.839 811.804C354.979 811.459 342.313 808.583 330.564 803.342C318.815 798.101 308.213 790.597 299.365 781.259C290.516 771.921 283.593 760.932 278.991 748.918L370.473 713.876L461.955 678.834Z" fill="white"/>
<path d="M222 278.545C222 271.557 223.705 265.186 227.114 259.433C230.523 253.68 235.104 249.099 240.857 245.69C246.609 242.281 252.98 240.577 259.969 240.577C266.02 240.577 271.602 241.876 276.716 244.476C281.872 247.075 286.134 250.634 289.5 255.151C292.866 259.625 294.955 264.696 295.764 270.364H280.295C279.443 265.974 277.078 262.395 273.2 259.625C269.322 256.812 264.912 255.406 259.969 255.406C255.707 255.406 251.83 256.45 248.335 258.538C244.841 260.626 242.05 263.418 239.962 266.912C237.874 270.406 236.83 274.284 236.83 278.545C236.83 282.807 237.874 286.685 239.962 290.179C242.05 293.673 244.841 296.464 248.335 298.553C251.83 300.641 255.707 301.685 259.969 301.685C264.912 301.685 269.088 300.3 272.497 297.53C275.949 294.717 278.122 291.116 279.017 286.727H294.486C293.676 292.395 291.695 297.487 288.541 302.004C285.388 306.479 281.339 310.016 276.396 312.615C271.496 315.214 266.02 316.514 259.969 316.514C252.98 316.514 246.609 314.81 240.857 311.401C235.104 307.991 230.523 303.411 227.114 297.658C223.705 291.905 222 285.534 222 278.545ZM259.33 346.045C250.04 346.045 241.304 344.298 233.122 340.804C224.983 337.31 217.803 332.473 211.581 326.294C205.402 320.072 200.544 312.892 197.007 304.753C193.513 296.614 191.787 287.878 191.83 278.545C191.872 269.213 193.641 260.477 197.135 252.338C200.672 244.199 205.53 237.04 211.709 230.861C217.888 224.639 225.047 219.781 233.186 216.287C241.325 212.793 250.04 211.045 259.33 211.045C268.662 211.045 277.398 212.793 285.537 216.287C293.719 219.781 300.878 224.639 307.014 230.861C313.193 237.04 318.03 244.199 321.524 252.338C325.018 260.477 326.787 269.213 326.83 278.545C326.872 287.878 325.146 296.614 321.652 304.753C318.158 312.892 313.321 320.072 307.142 326.294C300.963 332.473 293.783 337.31 285.601 340.804C277.419 344.298 268.662 346.045 259.33 346.045ZM259.33 331.216C266.616 331.216 273.456 329.852 279.848 327.125C286.24 324.398 291.844 320.626 296.659 315.811C301.474 310.996 305.246 305.413 307.973 299.064C310.7 292.672 312.043 285.854 312 278.609C311.957 271.322 310.572 264.483 307.845 258.091C305.118 251.699 301.347 246.095 296.531 241.28C291.716 236.464 286.134 232.693 279.784 229.966C273.435 227.239 266.616 225.875 259.33 225.875C252.085 225.875 245.288 227.239 238.939 229.966C232.589 232.693 227.007 236.486 222.192 241.344C217.376 246.159 213.584 251.763 210.814 258.155C208.087 264.504 206.702 271.322 206.659 278.609C206.616 285.811 207.959 292.608 210.686 299C213.413 305.349 217.185 310.932 222 315.747C226.858 320.562 232.462 324.355 238.811 327.125C245.203 329.852 252.043 331.216 259.33 331.216Z" fill="#0078FF"/>
<defs>
<linearGradient id="paint0_linear_29_2" x1="873.5" y1="150.5" x2="149" y2="875" gradientUnits="userSpaceOnUse">
<stop stop-color="#0000FF"/>
<stop offset="1" stop-color="#0192FE"/>
</linearGradient>
<linearGradient id="paint1_linear_29_2" x1="653.5" y1="571.773" x2="560" y2="694.773" gradientUnits="userSpaceOnUse">
<stop stop-color="#003CFF"/>
<stop offset="1" stop-color="#002499"/>
</linearGradient>
<linearGradient id="paint2_linear_29_2" x1="241" y1="848.624" x2="480.5" y2="521.124" gradientUnits="userSpaceOnUse">
<stop stop-color="#0078FF"/>
<stop offset="1" stop-color="#003CFF"/>
</linearGradient>
<linearGradient id="paint3_linear_29_2" x1="404.5" y1="394.773" x2="334" y2="496.773" gradientUnits="userSpaceOnUse">
<stop stop-color="#005AFF"/>
<stop offset="1" stop-color="#001EB4"/>
</linearGradient>
<linearGradient id="paint4_linear_29_2" x1="652" y1="403.273" x2="508" y2="575.773" gradientUnits="userSpaceOnUse">
<stop stop-color="#0096D2"/>
<stop offset="1" stop-color="#005AD2"/>
</linearGradient>
<linearGradient id="paint5_linear_29_2" x1="615.518" y1="222.14" x2="615.518" y2="304.896" gradientUnits="userSpaceOnUse">
<stop stop-color="#0084FF"/>
<stop offset="1" stop-color="#0024B4"/>
</linearGradient>
<linearGradient id="paint6_linear_29_2" x1="839.964" y1="306.906" x2="839.964" y2="403.022" gradientUnits="userSpaceOnUse">
<stop stop-color="#005AFF"/>
<stop offset="1" stop-color="#0000B4"/>
</linearGradient>
<linearGradient id="paint7_linear_29_2" x1="807" y1="352.773" x2="690.5" y2="467.773" gradientUnits="userSpaceOnUse">
<stop stop-color="#0078FF"/>
<stop offset="1" stop-color="#003CD2"/>
</linearGradient>
<linearGradient id="paint8_linear_29_2" x1="557.075" y1="273.575" x2="557.075" y2="382.575" gradientUnits="userSpaceOnUse">
<stop stop-color="#0000FF"/>
<stop offset="1" stop-color="#000096"/>
</linearGradient>
<linearGradient id="paint9_linear_29_2" x1="800.885" y1="156.055" x2="800.885" y2="257.715" gradientUnits="userSpaceOnUse">
<stop stop-color="#0096FF"/>
<stop offset="1" stop-color="#003CB4"/>
</linearGradient>
</defs>
</svg>
