<svg xmlns="http://www.w3.org/2000/svg" xmlns:xlink="http://www.w3.org/1999/xlink" viewBox="0,0,256,256" width="50px" height="50px" fill-rule="nonzero"><g fill="#ffffff" fill-rule="nonzero" stroke="none" stroke-width="1" stroke-linecap="butt" stroke-linejoin="miter" stroke-miterlimit="10" stroke-dasharray="" stroke-dashoffset="0" font-family="none" font-weight="none" font-size="none" text-anchor="none" style="mix-blend-mode: normal"><g transform="scale(5.12,5.12)"><path d="M14.01,16l0.63,2h-14.64v1c0,4.6 7.97,8.37 18.27,8.73l2,6.27h1.69l-2.07,7.62h17.65l-1.52,-7.62h1.71l0.22,-0.69c1.78,-5.52 6.42,-10.18 11.28,-11.34l0.77,-0.18v-5.79zM33.29,30.1c-0.68,0.81 -1.57,1.08 -2.18,1.08c-0.54,0 -0.81,0.14 -0.95,0.82c0,0 -0.81,-1.36 -1.9,-1.22c-1.09,0.13 -3.26,-0.41 -3.26,-2.86c0,-1.35 1.63,-2.17 1.63,-2.17c0,0 -0.68,2.31 1.09,2.31c1.68,0 1.52,-1.86 0.95,-2.72c-0.55,-0.81 -0.68,-0.95 -0.41,-2.04c0.27,0.82 1.36,1.09 1.22,0.55c-0.13,-0.55 -0.81,-1.5 -0.27,-2.58c0.41,-0.83 2.05,-1.6 2.39,-1.74c-0.27,0.18 -1.42,0.97 -1.3,2.28c0.13,1.49 1.49,2.72 1.49,2.72c0,0 -1.48,1.09 -0.68,1.63c0.82,0.54 1.23,-0.27 1.23,-0.27c0,0 0.54,0.95 -0.68,1.35c-1.23,0.41 -0.46,1.77 0.27,1.77c0.54,0 2.04,-0.13 1.77,-2.44c0.54,0.81 0.88,1.98 -0.41,3.53z"></path></g></g></svg>