<svg width="61" height="15" viewBox="0 0 61 15" fill="none" xmlns="http://www.w3.org/2000/svg">
<path d="M22.9451 3.27228H19.6292C19.4023 3.27228 19.2093 3.43713 19.1739 3.66113L17.8328 12.1639C17.8062 12.3317 17.9361 12.4829 18.1063 12.4829H19.6893C19.9162 12.4829 20.1092 12.3181 20.1446 12.0936L20.5063 9.80028C20.5412 9.5758 20.7346 9.41095 20.9611 9.41095H22.0108C24.195 9.41095 25.4556 8.35398 25.7848 6.25943C25.9332 5.34307 25.7911 4.62307 25.362 4.11883C24.8908 3.56513 24.0549 3.27228 22.9451 3.27228ZM23.3276 6.37774C23.1463 7.56755 22.2372 7.56755 21.3582 7.56755H20.8578L21.2088 5.34549C21.2297 5.21119 21.346 5.11228 21.4818 5.11228H21.7111C22.3099 5.11228 22.8748 5.11228 23.1666 5.45361C23.3407 5.65725 23.394 5.9598 23.3276 6.37774Z" fill="#253B80"/>
<path d="M32.8568 6.33943H31.269C31.1337 6.33943 31.0168 6.43834 30.996 6.57264L30.9257 7.01676L30.8147 6.85579C30.4709 6.35689 29.7044 6.1901 28.9393 6.1901C27.1846 6.1901 25.6859 7.51907 25.3941 9.38331C25.2423 10.3132 25.4581 11.2025 25.9856 11.8226C26.4694 12.3928 27.1618 12.6303 27.9856 12.6303C29.3994 12.6303 30.1834 11.7212 30.1834 11.7212L30.1126 12.1625C30.0859 12.3312 30.2159 12.4825 30.3851 12.4825H31.8154C32.0428 12.4825 32.2348 12.3176 32.2707 12.0931L33.1288 6.65846C33.156 6.49119 33.0265 6.33943 32.8568 6.33943ZM30.6435 9.42985C30.4903 10.337 29.7703 10.946 28.852 10.946C28.3909 10.946 28.0224 10.7981 27.7858 10.5179C27.5511 10.2396 27.4619 9.84343 27.5366 9.40222C27.6796 8.50282 28.4117 7.87398 29.316 7.87398C29.7669 7.87398 30.1334 8.02379 30.3749 8.30646C30.6168 8.59204 30.7128 8.99058 30.6435 9.42985Z" fill="#253B80"/>
<path d="M41.3135 6.33943H39.7179C39.5656 6.33943 39.4226 6.41507 39.3363 6.54161L37.1356 9.78331L36.2027 6.66816C36.1441 6.47325 35.9642 6.33943 35.7605 6.33943H34.1925C34.002 6.33943 33.8696 6.52561 33.9302 6.70501L35.6878 11.8628L34.0355 14.1954C33.9055 14.3792 34.0364 14.6318 34.2609 14.6318H35.8546C36.0059 14.6318 36.1475 14.5581 36.2333 14.434L41.5404 6.77337C41.6675 6.5901 41.537 6.33943 41.3135 6.33943Z" fill="#253B80"/>
<path d="M46.5964 3.27228H43.2801C43.0536 3.27228 42.8607 3.43713 42.8253 3.66113L41.4842 12.1639C41.4575 12.3317 41.5875 12.4829 41.7567 12.4829H43.4585C43.6165 12.4829 43.7518 12.3676 43.7766 12.2105L44.1572 9.80028C44.1921 9.5758 44.3855 9.41095 44.6119 9.41095H45.6612C47.8459 9.41095 49.106 8.35398 49.4357 6.25943C49.5846 5.34307 49.4415 4.62307 49.0124 4.11883C48.5416 3.56513 47.7062 3.27228 46.5964 3.27228ZM46.979 6.37774C46.7981 7.56755 45.889 7.56755 45.0095 7.56755H44.5096L44.8612 5.34549C44.882 5.21119 44.9974 5.11228 45.1336 5.11228H45.363C45.9613 5.11228 46.5266 5.11228 46.8185 5.45361C46.9925 5.65725 47.0454 5.9598 46.979 6.37774Z" fill="#179BD7"/>
<path d="M56.5077 6.33943H54.9208C54.7846 6.33943 54.6687 6.43834 54.6483 6.57264L54.578 7.01676L54.4665 6.85579C54.1227 6.35689 53.3567 6.1901 52.5916 6.1901C50.8369 6.1901 49.3387 7.51907 49.0469 9.38331C48.8956 10.3132 49.1104 11.2025 49.6379 11.8226C50.1227 12.3928 50.8141 12.6303 51.6379 12.6303C53.0517 12.6303 53.8357 11.7212 53.8357 11.7212L53.7649 12.1625C53.7383 12.3312 53.8682 12.4825 54.0384 12.4825H55.4682C55.6946 12.4825 55.8876 12.3176 55.923 12.0931L56.7817 6.65846C56.8078 6.49119 56.6779 6.33943 56.5077 6.33943ZM54.2944 9.42985C54.1421 10.337 53.4212 10.946 52.5029 10.946C52.0428 10.946 51.6733 10.7981 51.4367 10.5179C51.202 10.2396 51.1138 9.84343 51.1875 9.40222C51.3315 8.50282 52.0626 7.87398 52.9669 7.87398C53.4178 7.87398 53.7843 8.02379 54.0258 8.30646C54.2687 8.59204 54.3647 8.99058 54.2944 9.42985Z" fill="#179BD7"/>
<path d="M58.3797 3.50549L57.0187 12.1639C56.9921 12.3317 57.122 12.4829 57.2912 12.4829H58.6595C58.8869 12.4829 59.0798 12.3181 59.1147 12.0936L60.4568 3.59131C60.4835 3.42355 60.3535 3.2718 60.1843 3.2718H58.6522C58.5169 3.27228 58.4006 3.37119 58.3797 3.50549Z" fill="#179BD7"/>
<path d="M4.06262 14.1353L4.31619 12.5246L3.75134 12.5116H1.05413L2.92855 0.626464C2.93437 0.590585 2.95328 0.557131 2.98092 0.533373C3.00855 0.509616 3.04395 0.496525 3.0808 0.496525H7.62868C9.13849 0.496525 10.1804 0.810707 10.7244 1.43083C10.9795 1.72174 11.1419 2.02574 11.2204 2.36028C11.3029 2.71131 11.3043 3.13071 11.2238 3.64222L11.218 3.67955V4.00731L11.473 4.1518C11.6878 4.26574 11.8585 4.39616 11.9894 4.54549C12.2076 4.79422 12.3487 5.11034 12.4083 5.48513C12.4699 5.87058 12.4495 6.32925 12.3487 6.84852C12.2323 7.44586 12.0442 7.9661 11.7901 8.3918C11.5564 8.78404 11.2587 9.10937 10.9053 9.36149C10.5678 9.60101 10.1669 9.78283 9.71352 9.89919C9.27425 10.0136 8.7734 10.0713 8.22407 10.0713H7.87013C7.61704 10.0713 7.37122 10.1625 7.17825 10.3259C6.9848 10.4926 6.8568 10.7205 6.81752 10.9697L6.79086 11.1147L6.34286 13.9535L6.32249 14.0577C6.31716 14.0907 6.30795 14.1072 6.29437 14.1183C6.28225 14.1285 6.2648 14.1353 6.24783 14.1353H4.06262Z" fill="#253B80"/>
<path d="M11.7145 3.71737C11.701 3.80416 11.6854 3.89289 11.668 3.98404C11.0682 7.06331 9.01636 8.12707 6.39575 8.12707H5.06145C4.74096 8.12707 4.4709 8.3598 4.42096 8.67592L3.73781 13.0085L3.54436 14.2366C3.51187 14.4442 3.67187 14.6313 3.88133 14.6313H6.24787C6.52811 14.6313 6.76617 14.4277 6.81029 14.1513L6.83357 14.0311L7.27914 11.2034L7.30775 11.0483C7.35139 10.7709 7.58993 10.5673 7.87017 10.5673H8.22411C10.517 10.5673 12.3119 9.6364 12.8365 6.94258C13.0556 5.81725 12.9422 4.87762 12.3623 4.21677C12.1868 4.01749 11.9691 3.85216 11.7145 3.71737Z" fill="#179BD7"/>
<path d="M11.0871 3.46719C10.9955 3.44052 10.901 3.41628 10.804 3.39446C10.7065 3.37313 10.6066 3.35422 10.5039 3.33774C10.1441 3.27956 9.74992 3.25192 9.32762 3.25192H5.76301C5.67525 3.25192 5.59186 3.2718 5.51719 3.30768C5.35283 3.38671 5.23065 3.54234 5.20107 3.73289L4.44277 8.5358L4.42095 8.67592C4.47089 8.3598 4.74095 8.12707 5.06144 8.12707H6.39574C9.01635 8.12707 11.0682 7.06283 11.668 3.98404C11.6859 3.89289 11.701 3.80416 11.7145 3.71737C11.5628 3.63689 11.3984 3.56804 11.2214 3.50937C11.1778 3.49483 11.1327 3.48077 11.0871 3.46719Z" fill="#222D65"/>
<path d="M5.20105 3.73289C5.23063 3.54234 5.35281 3.3867 5.51717 3.30816C5.59233 3.27228 5.67524 3.2524 5.76299 3.2524H9.3276C9.7499 3.2524 10.1441 3.28004 10.5038 3.33822C10.6066 3.35471 10.7065 3.37361 10.804 3.39495C10.9009 3.41677 10.9955 3.44101 11.0871 3.46767C11.1327 3.48125 11.1778 3.49531 11.2219 3.50937C11.3989 3.56804 11.5632 3.63737 11.715 3.71737C11.8934 2.57943 11.7135 1.80464 11.0983 1.10307C10.42 0.330705 9.19572 3.8147e-05 7.62917 3.8147e-05H3.0813C2.7613 3.8147e-05 2.48833 0.232765 2.43887 0.549371L0.544569 12.5566C0.507236 12.7942 0.690509 13.0085 0.930024 13.0085H3.73778L4.44275 8.5358L5.20105 3.73289Z" fill="#253B80"/>
</svg>
